<svg xmlns="http://www.w3.org/2000/svg" xmlns:xlink="http://www.w3.org/1999/xlink" version="1.1" width="979" height="1434" viewBox="963 -194 979 1434">
<desc fill="#000000">Created with SVGMaker Editor 2.2.3</desc>
<defs fill="#000000">
</defs>
<path transform="translate(0,0)" style="stroke-width: 0; fill:#ffffff; fill-rule: evenodd" vector-effect="non-scaling-stroke" stroke-linecap="round" d="M1941.7986 938.2071L1905.7586 938.2071C1895.7486 1043.6671 1853.3686 1096.3871 1778.6186 1096.3871 1734.5686 1096.3871 1696.6886 1074.1971 1664.9886 1029.8171Q1617.4386 963.2371 1574.3886 766.0171L1503.3086 448.6681Q1428.2286 110.2941 1392.6886 2.6721C1368.9886-69.0729 1340.9586-119.7959 1308.5886-149.4969 1276.2186-179.195 1242.0186-194.0448 1205.9786-194.0462 1149.9186-194.0448 1103.1986-164.512 1065.8186-105.4479 1028.4486-46.3809 1008.7586 32.2061 1006.7586 130.3141L1042.7986 130.3141C1046.1386 69.5811 1061.9886 24.6981 1090.3486-4.3359 1118.7186-33.3669 1151.9186-47.8829 1189.9586-47.8839 1237.3486-47.8829 1277.0586-19.1839 1309.0886 38.2121Q1357.1486 124.3091 1391.1886 303.5061L962.7086 1226.5371 1151.9186 1226.5371 1450.2486 549.7801 1536.3486 938.2071C1567.0486 1076.3671 1601.7486 1161.2971 1640.4586 1192.9971 1679.1686 1224.6971 1719.5486 1240.5471 1761.5986 1240.5471 1812.9886 1240.5471 1855.8686 1216.5171 1890.2386 1168.4671 1924.6086 1120.4171 1941.7986 1043.6671 1941.7986 938.2071Z"/>
</svg>